<?xml version="1.0" encoding="UTF-8"?>
<svg version="1.1" xmlns="http://www.w3.org/2000/svg" width="1504" height="1128">
<path d="M0 0 C496.32 0 992.64 0 1504 0 C1504 372.24 1504 744.48 1504 1128 C1007.68 1128 511.36 1128 0 1128 C0 755.76 0 383.52 0 0 Z " fill="#ffffff" transform="translate(0,0)"/>
<path d="M0 0 C1.52457276 0.86309569 3.03580699 1.7500447 4.53515625 2.65625 C5.37288574 3.13892334 6.21061523 3.62159668 7.07373047 4.11889648 C9.92972858 5.774177 12.76398471 7.46305404 15.59765625 9.15625 C17.81991783 10.47071955 20.04259055 11.78449421 22.265625 13.09765625 C25.75526624 15.16154504 29.24253872 17.22926083 32.72387695 19.30712891 C39.87940726 23.57494328 47.08907866 27.71442306 54.39306641 31.72216797 C59.87655696 34.73625531 65.27562351 37.87516716 70.65844727 41.06494141 C77.13036155 44.89542269 83.64254252 48.65414848 90.16015625 52.40625 C103.65671526 60.17984494 117.1099483 68.02630585 130.55664062 75.88574219 C141.88618532 82.50646821 153.2274342 89.10558135 164.59765625 95.65625 C176.04800964 102.25330923 187.47256925 108.89334513 198.87792969 115.56787109 C201.4818232 117.08860101 204.08984803 118.60197383 206.69921875 120.11328125 C208.22790729 121.00253075 209.7565559 121.89184891 211.28515625 122.78125 C211.96199463 123.17094971 212.63883301 123.56064941 213.33618164 123.9621582 C220.40592156 128.08943145 224.696902 131.4448336 227.59765625 139.15625 C228.1004235 142.04878921 228.1074447 144.84527776 228.05175781 147.77539062 C228.05234192 148.59585876 228.05292603 149.4163269 228.05352783 150.26165771 C228.05076406 152.94571788 228.01975456 155.62863635 227.98828125 158.3125 C227.98081275 160.18436069 227.9751227 162.05622925 227.97113037 163.92810059 C227.95592195 168.83388183 227.91668183 173.73918277 227.87231445 178.64477539 C227.83125797 183.65895085 227.81309726 188.67320458 227.79296875 193.6875 C227.75018261 203.51062668 227.68198981 213.33339826 227.59765625 223.15625 C224.59765625 224.15625 224.59765625 224.15625 222.52661133 223.29858398 C221.33394653 222.60744507 221.33394653 222.60744507 220.1171875 221.90234375 C219.21299072 221.38486572 218.30879395 220.8673877 217.37719727 220.33422852 C216.39807373 219.75987061 215.4189502 219.1855127 214.41015625 218.59375 C213.38784912 218.00456787 212.36554199 217.41538574 211.31225586 216.80834961 C208.06789254 214.93472546 204.83232535 213.04655241 201.59765625 211.15625 C199.59271049 209.99173532 197.58750868 208.82766134 195.58203125 207.6640625 C190.58364812 204.75895588 185.59309121 201.84067099 180.60498047 198.91796875 C175.64695874 196.01351309 170.6852752 193.11534225 165.72265625 190.21875 C164.73789307 189.64390869 163.75312988 189.06906738 162.73852539 188.47680664 C154.28214255 183.54546091 145.80292758 178.6541761 137.32006836 173.76855469 C128.95433012 168.94738756 120.61340197 164.08478944 112.27856445 159.21044922 C105.97031134 155.52625887 99.63703045 151.88960315 93.28515625 148.28125 C84.90076135 143.51295088 76.58284231 138.63582428 68.28515625 133.71875 C67.70857269 133.37741028 67.13198914 133.03607056 66.53793335 132.68438721 C64.87348113 131.69843572 63.21016344 130.71056975 61.546875 129.72265625 C60.00459229 128.80830811 60.00459229 128.80830811 58.43115234 127.87548828 C55.35059319 126.00634322 52.34938995 124.03925603 49.38989258 121.98413086 C46.95730551 120.86045524 45.25371718 120.87574108 42.59765625 121.15625 C40.3967482 122.06180611 40.3967482 122.06180611 38.28125 123.4375 C37.44948242 123.9413623 36.61771484 124.44522461 35.76074219 124.96435547 C34.86129883 125.52268066 33.96185547 126.08100586 33.03515625 126.65625 C31.05074083 127.85885517 29.06499949 129.05927443 27.078125 130.2578125 C25.499104 131.21349121 25.499104 131.21349121 23.88818359 132.18847656 C18.2575149 135.55568162 12.55167671 138.7904727 6.84765625 142.03125 C4.46311944 143.38858223 2.07915539 144.74691826 -0.3046875 146.10546875 C-0.89557159 146.44208023 -1.48645569 146.77869171 -2.09524536 147.12550354 C-9.38557738 151.28172019 -16.64706886 155.48790422 -23.90893555 159.69360352 C-29.28810355 162.80327294 -34.68153754 165.88304212 -40.10546875 168.9140625 C-41.17498779 169.51259033 -42.24450684 170.11111816 -43.34643555 170.7277832 C-45.38164125 171.86401211 -47.41945758 172.99558106 -49.46020508 174.12182617 C-50.3602124 174.62431885 -51.26021973 175.12681152 -52.1875 175.64453125 C-53.37678101 176.30255737 -53.37678101 176.30255737 -54.59008789 176.97387695 C-56.5531816 178.03731965 -56.5531816 178.03731965 -57.40234375 180.15625 C-57.49863598 181.88460465 -57.53309392 183.61662253 -57.53515625 185.34765625 C-57.53708984 186.88776367 -57.53708984 186.88776367 -57.5390625 188.45898438 C-57.53519531 189.53470703 -57.53132812 190.61042969 -57.52734375 191.71875 C-57.53121094 192.79833984 -57.53507813 193.87792969 -57.5390625 194.99023438 C-57.53777344 196.01568359 -57.53648437 197.04113281 -57.53515625 198.09765625 C-57.53346436 199.51606812 -57.53346436 199.51606812 -57.53173828 200.96313477 C-57.64737195 203.13263251 -57.64737195 203.13263251 -56.40234375 204.15625 C-50.15356015 205.14654851 -45.9727632 202.00890334 -40.83984375 198.90625 C-38.94943849 197.79389731 -37.05880731 196.68192848 -35.16796875 195.5703125 C-33.72647461 194.71421387 -33.72647461 194.71421387 -32.25585938 193.84082031 C-27.89730187 191.26774992 -23.49231454 188.77814234 -19.08984375 186.28125 C-10.36500834 181.30703985 -1.69150146 176.24705115 6.97631836 171.17431641 C13.41667124 167.41109479 19.88094612 163.6977998 26.40722656 160.08544922 C30.83112622 157.62864279 35.09917346 154.9891677 39.2890625 152.15234375 C42.806506 150.63466508 44.75119148 150.59967532 48.59765625 151.15625 C52.62702566 153.07483092 56.33659306 155.4493969 60.09765625 157.84375 C61.77521708 158.88186585 63.45280785 159.91993962 65.13270569 160.95426941 C66.27735533 161.65906572 67.42101734 162.36546843 68.56370544 163.07344055 C74.01234424 166.44111249 79.56739951 169.59839652 85.16015625 172.71875 C93.95777211 177.64840301 102.68853599 182.68122025 111.39111328 187.77661133 C118.92148321 192.18408178 126.47343243 196.55281289 134.03515625 200.90625 C141.07379059 204.95990299 148.10502804 209.02369006 155.09765625 213.15625 C162.05074356 217.26418773 169.03869645 221.31016346 176.03515625 225.34375 C177.13158447 225.97603516 178.2280127 226.60832031 179.35766602 227.25976562 C184.5345711 230.24353795 189.71339041 233.22390847 194.89707947 236.19587708 C196.64873771 237.20048253 198.39978155 238.20615049 200.15063477 239.2121582 C202.33478562 240.46674907 204.52008775 241.71933878 206.70678711 242.96948242 C224.82596182 253.38455557 224.82596182 253.38455557 227.59765625 256.15625 C227.7028592 257.98563583 227.73732099 259.81911159 227.74482727 261.65150452 C227.75556023 263.44106064 227.75556023 263.44106064 227.76651001 265.26676941 C227.76935063 266.60110448 227.77206232 267.93543982 227.7746582 269.26977539 C227.78092028 270.66579356 227.78756685 272.06181006 227.79457092 273.45782471 C227.8120114 277.26189451 227.82254224 281.06595171 227.83077645 284.87005162 C227.83592309 287.247252 227.84199916 289.62444844 227.84828758 292.00164604 C227.86735327 299.44045188 227.8815781 306.87924774 227.88989955 314.31807333 C227.89966004 322.90184688 227.92594247 331.48536174 227.96640044 340.06904417 C227.99659582 346.70353158 228.0113719 353.33794502 228.01468056 359.97249979 C228.01702835 363.93443571 228.0259521 367.89609572 228.05114174 371.85795784 C228.07448577 375.59019775 228.07863059 379.32198141 228.06838036 383.05427551 C228.0676517 385.06856705 228.08670127 387.08283574 228.10644531 389.09703064 C228.06115728 397.00683692 227.48306526 402.98513296 221.87451172 409.00610352 C221.28557129 409.40756592 220.69663086 409.80902832 220.08984375 410.22265625 C219.39084961 410.70105957 218.69185547 411.17946289 217.97167969 411.67236328 C213.28797254 414.59992108 208.52898528 417.37281167 203.72265625 420.09375 C201.98815455 421.08505206 200.2536574 422.07636219 198.5194397 423.06816101 C196.72938262 424.09102229 194.93805082 425.11162105 193.14648438 426.13183594 C187.57628708 429.30617179 182.02503808 432.51338948 176.47265625 435.71875 C175.395 436.34007812 174.31734375 436.96140625 173.20703125 437.6015625 C166.03129593 441.7414098 158.87328621 445.9107235 151.72265625 450.09375 C142.29650936 455.60745302 132.8249918 461.03789436 123.33752441 466.44500732 C115.87058484 470.70155165 108.42557849 474.99002801 101.02978516 479.36914062 C94.72592901 483.09631675 88.38141815 486.75185083 82.03515625 490.40625 C73.54116501 495.29782946 65.06002525 500.210163 56.59765625 505.15625 C39.97961468 514.8654514 23.30452496 524.4757626 6.59765625 534.03125 C5.71311768 534.53736816 4.8285791 535.04348633 3.91723633 535.56494141 C3.1105249 536.02562012 2.30381348 536.48629883 1.47265625 536.9609375 C0.76882813 537.36296387 0.065 537.76499023 -0.66015625 538.17919922 C-5.25252082 540.7546817 -9.1990912 540.74397672 -14.40234375 540.15625 C-16.72924805 539.2565918 -16.72924805 539.2565918 -19.0390625 538.04296875 C-19.90644043 537.58760742 -20.77381836 537.13224609 -21.66748047 536.66308594 C-26.3996439 534.05579147 -31.06472905 531.34425803 -35.71484375 528.59375 C-37.8380386 527.34549808 -39.96174624 526.09811804 -42.0859375 524.8515625 C-43.14409668 524.23055664 -44.20225586 523.60955078 -45.29248047 522.96972656 C-49.93227003 520.26409327 -54.60467179 517.61703496 -59.27734375 514.96875 C-68.78154276 509.57151589 -78.11483932 503.91699756 -87.40234375 498.15625 C-87.07446289 496.27294922 -87.07446289 496.27294922 -86.40234375 494.15625 C-84.22647999 492.68098351 -82.16320463 491.48049511 -79.83984375 490.28125 C-78.36590059 489.48675786 -76.89332816 488.68971935 -75.421875 487.890625 C-74.61572754 487.45556641 -73.80958008 487.02050781 -72.97900391 486.57226562 C-68.27381696 483.98650816 -63.65641722 481.25016426 -59.02734375 478.53125 C-50.54298558 473.56638913 -42.04408264 468.62786395 -33.52734375 463.71875 C-32.44936523 463.09734131 -31.37138672 462.47593262 -30.26074219 461.83569336 C-25.87802111 459.30998561 -21.49466192 456.78538637 -17.11132812 454.26074219 C-4.41766106 446.94849607 8.2603753 439.61141852 20.90625 432.21679688 C27.32290121 428.46950652 33.76364135 424.76746254 40.22265625 421.09375 C48.35260548 416.46807596 56.41888958 411.74216724 64.4621582 406.9675293 C71.56692105 402.75292602 78.70708288 398.60270981 85.87353516 394.49389648 C86.98414307 393.8549646 86.98414307 393.8549646 88.1171875 393.203125 C88.76792236 392.83026367 89.41865723 392.45740234 90.08911133 392.07324219 C91.59101446 391.24187193 91.59101446 391.24187193 92.59765625 390.15625 C92.73032263 388.63646853 92.79494261 387.11068985 92.83230591 385.58558655 C92.87121948 384.10327545 92.87121948 384.10327545 92.91091919 382.59101868 C92.93403168 381.49758652 92.95714417 380.40415436 92.98095703 379.27758789 C93.02213654 377.5604509 93.02213654 377.5604509 93.06414795 375.80862427 C93.30429224 365.22206434 93.44930243 354.63384166 93.56059456 344.04522038 C93.63711131 336.92764373 93.74551631 329.81354299 93.93505859 322.69799805 C94.10043459 316.48904295 94.20520314 310.28251105 94.237831 304.07138628 C94.25706139 300.78481233 94.31410893 297.50622297 94.42563248 294.22130013 C95.42867849 280.97651505 95.42867849 280.97651505 90.94307709 269.04270554 C85.54836904 264.33619658 79.24815967 261.43864743 72.11209106 260.88661194 C69.66132559 260.88335375 69.66132559 260.88335375 68.59765625 262.15625 C68.49861621 263.60195302 68.46857672 265.05245135 68.46635437 266.50154114 C68.46234619 267.43952042 68.45833801 268.37749969 68.45420837 269.34390259 C68.45473709 270.38130585 68.45526581 271.41870911 68.45581055 272.48754883 C68.45233612 273.57366959 68.44886169 274.65979034 68.44528198 275.77882385 C68.43790915 278.14643144 68.43257195 280.51404601 68.42899132 282.88166237 C68.42185141 286.62564901 68.40620368 290.36950262 68.38764954 294.1134491 C68.33506189 304.76157838 68.28675352 315.40961009 68.27172852 326.05786133 C68.26245586 332.56247353 68.23238375 339.06681105 68.19040871 345.57129478 C68.1780668 348.05482158 68.17298323 350.5383952 68.17520714 353.02195168 C68.177551 356.49391911 68.15546141 359.96492918 68.12768555 363.43676758 C68.13428696 364.46809814 68.14088837 365.49942871 68.14768982 366.56201172 C68.05589655 373.53018115 68.05589655 373.53018115 65.71629333 376.72665405 C63.32307683 378.34152837 60.94640815 379.87574685 58.43359375 381.30078125 C57.40693604 381.88762695 56.38027832 382.47447266 55.32250977 383.07910156 C53.66433228 384.01447754 53.66433228 384.01447754 51.97265625 384.96875 C50.81072822 385.63050354 49.64919499 386.29295072 48.48803711 386.95605469 C46.07118205 388.33553732 43.65265003 389.71201016 41.23291016 391.08642578 C35.52578271 394.33152079 29.84433862 397.6211916 24.16015625 400.90625 C21.98704282 402.16026656 19.81386712 403.41417522 17.640625 404.66796875 C-0.7820027 415.30118264 -19.16619164 425.99923784 -37.52734375 436.73828125 C-46.96183353 442.25342092 -56.4062742 447.74770142 -65.90234375 453.15625 C-73.59032221 457.5365499 -81.25512059 461.9551557 -88.90234375 466.40625 C-89.91925293 466.99607666 -90.93616211 467.58590332 -91.98388672 468.19360352 C-96.24000957 470.67325466 -100.47285417 473.161783 -104.59765625 475.85546875 C-105.19255859 476.2412207 -105.78746094 476.62697266 -106.40039062 477.02441406 C-107.88307002 477.99892423 -109.35063562 478.99633143 -110.81640625 479.99609375 C-114.32570377 481.57050669 -115.72408825 481.32660402 -119.40234375 480.15625 C-122.72042254 478.47701158 -125.86412311 476.54609046 -129.02734375 474.59375 C-131.00006586 473.40159778 -132.9740879 472.21159471 -134.94921875 471.0234375 C-135.99529297 470.39276367 -137.04136719 469.76208984 -138.11914062 469.11230469 C-143.79164916 465.73275841 -149.53631082 462.4798585 -155.27734375 459.21875 C-165.03569094 453.66551064 -174.75838277 448.05489596 -184.44897461 442.3840332 C-190.77634619 438.68301841 -197.11698199 435.00605 -203.46923828 431.34790039 C-206.76545461 429.44910215 -210.05855528 427.54498154 -213.3515625 425.640625 C-217.09080175 423.48041072 -220.84100441 421.34331328 -224.609375 419.234375 C-225.38676025 418.79319336 -226.16414551 418.35201172 -226.96508789 417.89746094 C-228.35527888 417.10856363 -229.75106971 416.32939338 -231.15405273 415.56347656 C-237.41274069 411.98050315 -242.24369985 407.1505206 -244.40234375 400.15625 C-244.70533426 396.64643614 -244.68497426 393.14543218 -244.67649841 389.62431335 C-244.68173509 388.55171149 -244.68697177 387.47910962 -244.69236714 386.37400466 C-244.70738976 382.77363158 -244.70807279 379.17340034 -244.70874023 375.57299805 C-244.71636016 372.99413818 -244.72478737 370.41528058 -244.73396301 367.83642578 C-244.75679622 360.82607831 -244.76473168 353.81576115 -244.76978946 346.80538154 C-244.77304817 342.42675117 -244.77957166 338.04812957 -244.78679085 333.66950417 C-244.8063539 321.54209393 -244.82276006 309.41469185 -244.82566738 297.28726482 C-244.82585495 296.51147117 -244.82604252 295.73567751 -244.82623577 294.93637495 C-244.82660202 293.3637141 -244.82696572 291.79105325 -244.82732689 290.21839239 C-244.8275097 289.43774136 -244.82769251 288.65709033 -244.82788086 287.8527832 C-244.82806141 287.07117751 -244.82824196 286.28957182 -244.82842798 285.4842811 C-244.83196982 272.81876859 -244.8589941 260.15342607 -244.89637875 247.48797252 C-244.9344694 234.47906373 -244.95382491 221.47023929 -244.95412689 208.46127349 C-244.95471126 201.15936124 -244.96319005 193.85765185 -244.99212456 186.55579185 C-245.01921372 179.68814434 -245.02053685 172.82090472 -245.00446892 165.95322418 C-245.00265064 163.43291919 -245.00937902 160.91259133 -245.02528763 158.39233589 C-245.04568692 154.95079217 -245.03523053 151.51066291 -245.01707458 148.06913757 C-245.03027455 147.0725315 -245.04347452 146.07592543 -245.05707449 145.04911917 C-244.96677269 137.55148069 -242.82813017 132.61948411 -237.54858398 127.28222656 C-232.05083512 123.45625913 -226.32999015 120.13705514 -220.46484375 116.90625 C-218.404316 115.75633994 -216.34442401 114.60528994 -214.28515625 113.453125 C-213.28000977 112.89173828 -212.27486328 112.33035156 -211.23925781 111.75195312 C-207.41191503 109.59915516 -203.620283 107.39012491 -199.83984375 105.15625 C-199.18411377 104.77138428 -198.52838379 104.38651855 -197.8527832 103.98999023 C-193.7537018 101.57584055 -189.69136902 99.1077322 -185.640625 96.61328125 C-184.15187866 95.70739258 -184.15187866 95.70739258 -182.63305664 94.78320312 C-180.68080153 93.59480441 -178.7356278 92.39467516 -176.79858398 91.18164062 C-175.90985596 90.64345703 -175.02112793 90.10527344 -174.10546875 89.55078125 C-172.92452637 88.82145386 -172.92452637 88.82145386 -171.71972656 88.07739258 C-168.85751204 86.93968341 -167.34388912 87.45985608 -164.40234375 88.15625 C-164.41101691 89.22508391 -164.41969007 90.29391783 -164.42862606 91.39514065 C-164.63628787 117.41024399 -164.75754688 143.42465881 -164.7883749 169.44058895 C-164.80528071 182.02191852 -164.85018905 194.60198098 -164.96118164 207.18286133 C-165.05786055 218.14937444 -165.10183446 229.1146208 -165.08270413 240.08156592 C-165.0744109 245.88838113 -165.09238062 251.69241979 -165.17349052 257.49873161 C-165.24904966 262.96733566 -165.25398854 268.43151301 -165.20536041 273.90037918 C-165.19987893 275.90433325 -165.21994397 277.90854958 -165.26780128 279.91193962 C-165.85291075 289.9762216 -165.85291075 289.9762216 -161.95407987 298.81620717 C-158.41185126 301.69818225 -154.52633483 303.58064033 -150.32675564 305.31572831 C-147.24995855 306.65957507 -144.47639 308.40598501 -141.61328125 310.15625 C-139.33509699 311.4903814 -137.05645841 312.82371125 -134.77734375 314.15625 C-133.5277021 314.88769375 -132.27811026 315.61922261 -131.02856445 316.35083008 C-128.44418926 317.86391259 -125.85960485 319.37663685 -123.27490234 320.88916016 C-118.87337396 323.46534436 -114.47404737 326.0452764 -110.07546997 328.62649536 C-107.04424669 330.4051304 -104.01207715 332.18210344 -100.97753906 333.95507812 C-95.13012192 337.37300267 -89.2976127 340.81189221 -83.4921875 344.30078125 C-82.40075439 344.95151611 -81.30932129 345.60225098 -80.18481445 346.27270508 C-78.142547 347.49099112 -76.10552066 348.7181253 -74.07495117 349.95581055 C-67.21263568 354.1087972 -67.21263568 354.1087972 -59.40234375 355.15625 C-56.42014759 354.03647313 -53.79621431 352.51171703 -51.08984375 350.84375 C-50.37505859 350.42673828 -49.66027344 350.00972656 -48.92382812 349.58007812 C-46.12097446 347.92372634 -43.71385127 346.46775752 -41.40234375 344.15625 C-41.40686844 341.64652414 -41.40686844 341.64652414 -42.40234375 339.15625 C-44.1813341 337.49914195 -44.1813341 337.49914195 -46.5390625 336.28125 C-47.41522217 335.77770996 -48.29138184 335.27416992 -49.1940918 334.75537109 C-50.14968994 334.22766113 -51.10528809 333.69995117 -52.08984375 333.15625 C-54.11094819 332.00307919 -56.13177385 330.84941967 -58.15234375 329.6953125 C-59.19132813 329.10911133 -60.2303125 328.52291016 -61.30078125 327.91894531 C-66.10340149 325.18949647 -70.84363627 322.35723936 -75.58984375 319.53125 C-82.23497855 315.59752166 -88.89963677 311.7002621 -95.58984375 307.84375 C-103.051234 303.5397247 -110.47988399 299.18113532 -117.89370728 294.79580688 C-119.09485178 294.08542577 -120.29632185 293.37559483 -121.49813843 292.66635132 C-123.19251343 291.66605621 -124.88534271 290.66314431 -126.578125 289.66015625 C-127.55692627 289.08080322 -128.53572754 288.5014502 -129.54418945 287.90454102 C-130.48738037 287.32760498 -131.43057129 286.75066895 -132.40234375 286.15625 C-133.43516259 285.63527678 -134.46798143 285.11430355 -135.53209782 284.57754326 C-138.40234375 282.15625 -138.40234375 282.15625 -139.16577053 278.36993599 C-139.20268701 276.80280202 -139.20639627 275.2346817 -139.18443298 273.66726685 C-139.19590962 272.80236944 -139.20738627 271.93747204 -139.21921068 271.04636562 C-139.25021693 268.14249906 -139.23822454 265.24041041 -139.22631836 262.33642578 C-139.23935733 260.25691069 -139.25490599 258.17741005 -139.27278137 256.09793091 C-139.31301454 250.44489076 -139.31468066 244.79245151 -139.30709147 239.13929605 C-139.30388627 234.42245842 -139.31852236 229.70574304 -139.33290774 224.98893154 C-139.3662156 213.86183174 -139.36749344 202.73503572 -139.34936523 191.60791016 C-139.33124368 180.12407519 -139.36817717 168.64134271 -139.43207544 157.15769589 C-139.48489727 147.30275437 -139.50293178 137.44816403 -139.49316221 127.59308612 C-139.48771834 121.70505432 -139.49568212 115.81780876 -139.53730583 109.92990494 C-139.57498675 104.39229726 -139.5692662 98.8564093 -139.53007317 93.31882858 C-139.52296444 91.28629226 -139.53122201 89.25363561 -139.55594254 87.22123718 C-139.72949127 71.84433902 -139.72949127 71.84433902 -136.44095802 67.66143036 C-134.11927434 66.07967647 -132.03933446 65.09346154 -129.40234375 64.15625 C-128.30599609 63.49915039 -127.20964844 62.84205078 -126.08007812 62.16503906 C-125.06236328 61.58979492 -124.04464844 61.01455078 -122.99609375 60.421875 C-121.27567871 59.44516846 -121.27567871 59.44516846 -119.52050781 58.44873047 C-118.92983521 58.11532654 -118.3391626 57.78192261 -117.73059082 57.43841553 C-114.60148571 55.67183021 -111.47887128 53.89382931 -108.35546875 52.1171875 C-107.74362732 51.76951324 -107.13178589 51.42183899 -106.50140381 51.06362915 C-101.86177753 48.42490181 -97.24609415 45.74891574 -92.65234375 43.03125 C-92.00579834 42.6489624 -91.35925293 42.2666748 -90.69311523 41.87280273 C-89.3427462 41.07426482 -87.99240513 40.27567959 -86.64208984 39.47705078 C-72.37354528 31.06274665 -58.03103953 22.77423818 -43.67382812 14.51245117 C-36.54633743 10.40698617 -29.44262427 6.26405821 -22.38696289 2.03613281 C-15.16529404 -2.25818599 -7.8328516 -3.88705928 0 0 Z " fill="#000000" transform="translate(760.40234375,294.84375)"/>
<path d="M0 0 C3.5693879 1.84141787 7.02231817 3.86143528 10.48388672 5.89648438 C12.54640688 7.0719137 14.61031334 8.24491245 16.67529297 9.41601562 C26.94026862 15.26561677 37.12537641 21.25302921 47.29541016 27.26586914 C52.72309357 30.46851899 58.19353036 33.59309789 63.67138672 36.70898438 C71.9208541 41.40234719 80.10256438 46.2009697 88.26318359 51.046875 C94.3649205 54.66319687 100.50275563 58.20817366 106.67138672 61.70898438 C115.24499777 66.57914729 123.74951395 71.56056921 132.23388672 76.58398438 C132.84017914 76.94231354 133.44647156 77.3006427 134.07113647 77.66983032 C135.7878954 78.68501351 137.5031148 79.70279882 139.21826172 80.72070312 C140.21051758 81.30940186 141.20277344 81.89810059 142.22509766 82.50463867 C144.48388672 83.89648437 144.48388672 83.89648437 145.48388672 84.89648438 C145.57228342 87.27216957 145.59918977 89.61857111 145.58154297 91.99414062 C145.57942055 93.05742836 145.57942055 93.05742836 145.57725525 94.14219666 C145.57164114 96.4145015 145.55908635 98.68670913 145.54638672 100.95898438 C145.54137353 102.49609233 145.53681031 104.03320183 145.53271484 105.5703125 C145.52166714 109.34574079 145.50439313 113.12109608 145.48388672 116.89648438 C144.59507812 116.38569336 143.70626953 115.87490234 142.79052734 115.34863281 C136.97820393 112.01073929 131.15234947 108.70364866 125.28173828 105.46923828 C114.27283884 99.40073708 103.42394164 93.06939209 92.58056641 86.7109375 C87.55286342 83.76503017 82.51812555 80.8312037 77.48388672 77.89648438 C71.50604816 74.41038389 65.5288267 70.92324208 59.55419922 67.43164062 C40.91405366 56.54149228 22.22350021 45.7395994 3.48388672 35.02148438 C2.59934814 34.51536621 1.71480957 34.00924805 0.8034668 33.48779297 C-0.00324463 33.02711426 -0.80995605 32.56643555 -1.64111328 32.09179688 C-2.34494141 31.68977051 -3.04876953 31.28774414 -3.77392578 30.87353516 C-7.74175767 28.64830208 -11.02076193 28.11071522 -15.51611328 28.89648438 C-19.7013597 30.67268044 -23.54836301 32.95297395 -27.45361328 35.27148438 C-28.56824951 35.9148877 -29.68288574 36.55829102 -30.83129883 37.22119141 C-34.06995454 39.09584557 -37.2947389 40.99232674 -40.51611328 42.89648438 C-41.99234582 43.76163097 -43.46886 44.62629741 -44.94580078 45.49023438 C-46.89696598 46.63463055 -48.84621072 47.78192683 -50.79150391 48.9362793 C-58.65147178 53.59731475 -66.59966932 58.10482577 -74.5402832 62.62646484 C-80.7176889 66.14570213 -86.88381064 69.68250774 -93.02783203 73.25976562 C-94.2349326 73.96136516 -95.44204502 74.66294429 -96.64916992 75.36450195 C-98.94146145 76.69702822 -101.23033248 78.03492701 -103.51782227 79.37573242 C-104.54077393 79.97039307 -105.56372559 80.56505371 -106.61767578 81.17773438 C-107.51824707 81.70431641 -108.41881836 82.23089844 -109.34667969 82.7734375 C-111.51611328 83.89648438 -111.51611328 83.89648438 -113.51611328 83.89648438 C-113.58565927 95.26659567 -113.63894801 106.63665626 -113.6715498 118.00693703 C-113.68719793 123.28676498 -113.70842083 128.56644728 -113.74243164 133.84619141 C-113.77505521 138.94254359 -113.79297271 144.03875576 -113.80074501 149.13520432 C-113.80628311 151.07844623 -113.8170977 153.02168059 -113.83330345 154.96486282 C-113.85511746 157.6891453 -113.85807853 160.4128511 -113.85668945 163.13720703 C-113.86747528 163.93850037 -113.87826111 164.7397937 -113.88937378 165.56536865 C-113.86270896 170.40625374 -113.18221083 173.69677325 -110.51611328 177.89648438 C-108.07098256 179.88618973 -108.07098256 179.88618973 -105.13330078 181.41210938 C-104.05628906 182.01917725 -102.97927734 182.62624512 -101.86962891 183.25170898 C-100.72171875 183.87698486 -99.57380859 184.50226074 -98.39111328 185.14648438 C-96.61352906 186.13278123 -94.83844611 187.12348098 -93.06341553 188.11436462 C-91.88247318 188.77288738 -90.70038453 189.42935871 -89.51715088 190.08375549 C-86.07092865 191.99623379 -82.69763307 193.98780392 -79.36767578 196.09570312 C-78.62018066 196.56395508 -77.87268555 197.03220703 -77.10253906 197.51464844 C-75.76470781 198.36061615 -74.43644409 199.22202368 -73.12109375 200.10253906 C-68.03421187 203.26498611 -63.42021283 204.10378705 -57.51611328 202.89648438 C-52.92827869 201.00170062 -48.71034819 198.55481708 -44.45361328 196.02148438 C-43.24301726 195.32227474 -42.03133366 194.62494494 -40.81860352 193.92944336 C-37.36930031 191.94359663 -33.9418509 189.92270215 -30.51611328 187.89648438 C-28.99839908 187.00888449 -27.48025534 186.1220181 -25.96142578 185.23632812 C-23.34450601 183.70497653 -20.73557815 182.1608657 -18.12939453 180.61132812 C-10.84772028 176.30196869 -3.4835454 172.13252492 3.87329102 167.953125 C9.49805442 164.75603283 15.10880417 161.54114594 20.67138672 158.23632812 C22.08919434 157.40174072 22.08919434 157.40174072 23.53564453 156.55029297 C25.27594906 155.5239353 27.01020873 154.48722412 28.73681641 153.43798828 C33.76829299 150.48853796 37.59825341 148.902484 43.48388672 148.89648438 C46.80029297 150.01367188 46.80029297 150.01367188 50.04638672 151.77148438 C50.9488916 152.25294922 50.9488916 152.25294922 51.86962891 152.74414062 C57.3531426 155.71188987 62.68259519 158.94949933 68.00341797 162.19726562 C73.58761206 165.58762298 79.25805081 168.82823016 84.92138672 172.08398438 C96.47549882 178.73326915 108.00700369 185.41948135 119.50976562 192.15722656 C122.61655521 193.97406854 125.72791138 195.78293959 128.83935547 197.59179688 C130.86687902 198.77638502 132.89422925 199.96126988 134.92138672 201.14648438 C135.86981445 201.69578613 136.81824219 202.24508789 137.79541016 202.81103516 C138.66069336 203.31876465 139.52597656 203.82649414 140.41748047 204.34960938 C141.56301392 205.01718262 141.56301392 205.01718262 142.73168945 205.69824219 C144.48388672 206.89648438 144.48388672 206.89648438 145.48388672 208.89648438 C145.58558451 210.64318676 145.62335524 212.39375861 145.63105774 214.1434021 C145.6417907 215.81275818 145.6417907 215.81275818 145.65274048 217.51583862 C145.65542938 218.74279449 145.65811829 219.96975037 145.66088867 221.23388672 C145.66745987 222.52188171 145.67403107 223.80987671 145.68080139 225.13690186 C145.70186301 229.41872915 145.71221274 233.70055685 145.72216797 237.98242188 C145.72621618 239.45873661 145.73033312 240.93505116 145.73451805 242.41136551 C145.75358241 249.35468336 145.76780504 256.29799055 145.77613002 263.24132955 C145.78587663 271.23756671 145.81212295 279.23352514 145.85263091 287.22966421 C145.88290154 293.41922744 145.89760962 299.60871136 145.90091103 305.79834712 C145.90325112 309.48989066 145.91207277 313.18113692 145.93737221 316.87260056 C145.96522338 321.00362043 145.9607886 325.13402859 145.95385742 329.26513672 C145.97307251 331.07520706 145.97307251 331.07520706 145.99267578 332.92184448 C145.93172565 342.93799802 144.05144983 353.16719973 137.44091797 361.06445312 C133.66273133 364.60131846 129.27715195 367.05579411 124.7890625 369.59130859 C122.08166417 371.12422021 119.39025048 372.68351867 116.69873047 374.24414062 C112.24243952 376.8252091 107.78111122 379.39725472 103.31591797 381.96289062 C96.98298621 385.60457226 90.66706288 389.27461816 84.35888672 392.95898438 C83.37968262 393.53068359 82.40047852 394.10238281 81.39160156 394.69140625 C77.40840718 397.0177229 73.42602667 399.34542709 69.44433594 401.67431641 C58.9826506 407.79297414 48.51527681 413.89840129 37.98388672 419.89648438 C30.33584622 424.25311121 22.71354458 428.65204421 15.10888672 433.08398438 C14.09785889 433.67195801 13.08683105 434.25993164 12.04516602 434.86572266 C7.60202113 437.45740547 3.17608954 440.06642559 -1.19189453 442.78320312 C-2.22467529 443.42189331 -2.22467529 443.42189331 -3.27832031 444.07348633 C-4.51341287 444.84201273 -5.7428542 445.61974102 -6.96484375 446.40893555 C-10.31395234 448.49194226 -12.58694321 449.64032726 -16.51611328 448.89648438 C-19.055114 447.60400663 -21.37401605 446.29235398 -23.76611328 444.77148438 C-24.42490479 444.36422119 -25.08369629 443.95695801 -25.76245117 443.53735352 C-30.75260628 440.43463788 -35.68176546 437.23729385 -40.51611328 433.89648438 C-37.36405359 430.3855268 -33.87652861 428.22675647 -29.76611328 426.02148438 C-28.31711281 425.2252765 -26.86926774 424.42696364 -25.42236328 423.62695312 C-24.63474609 423.1917334 -23.84712891 422.75651367 -23.03564453 422.30810547 C-18.4079525 419.71534235 -13.84103951 417.01839238 -9.26611328 414.33398438 C-0.23664844 409.04572224 8.82965845 403.8265663 17.92138672 398.64648438 C25.99638212 394.04473632 34.05422651 389.41900058 42.05175781 384.68359375 C48.35561607 380.95641638 54.70022069 377.30105338 61.04638672 373.64648438 C72.7020883 366.93038962 84.34938715 360.20109991 95.94482422 353.38134766 C98.20971382 352.0568228 100.48472579 350.75261002 102.76513672 349.45507812 C103.9426218 348.76956981 105.11974676 348.08344227 106.29638672 347.39648438 C107.72917969 346.57664062 107.72917969 346.57664062 109.19091797 345.74023438 C112.64379898 342.96381216 114.20463826 339.97550765 114.80019379 335.54155731 C114.97365592 332.63127418 115.04952511 329.73252058 115.09423828 326.81738281 C115.13585587 325.15767204 115.13585587 325.15767204 115.17831421 323.46443176 C115.26278611 319.81166256 115.32227348 316.15922639 115.37451172 312.50585938 C115.39297905 311.25509865 115.41144638 310.00433792 115.43047333 308.71567535 C115.50339945 303.45701693 115.56950229 298.19840767 115.6110878 292.93940353 C115.67111127 285.42963045 115.78819218 277.92567464 115.98436379 270.41818786 C116.13411891 264.48318815 116.18984453 258.54946287 116.21361542 252.61255646 C116.23741252 250.09723063 116.2902184 247.58200059 116.37299347 245.0679245 C117.32088642 232.29487403 117.32088642 232.29487403 112.82728767 220.88431549 C108.81103849 217.55463852 104.40004756 215.51139633 99.53906441 213.70273399 C96.63714041 212.56430439 94.06055747 210.98952642 91.41748047 209.34960938 C88.58140087 207.69590246 85.74456795 206.04349289 82.90771484 204.39111328 C77.56509564 201.27849329 72.22599048 198.16016977 66.89404297 195.02929688 C65.82033447 194.39991211 64.74662598 193.77052734 63.64038086 193.12207031 C61.59280612 191.92162043 59.54634949 190.7192606 57.5012207 189.51464844 C54.83941043 187.95582106 52.16436004 186.42292346 49.48388672 184.89648438 C48.77619141 184.47270508 48.06849609 184.04892578 47.33935547 183.61230469 C42.41841248 180.84366763 38.09212699 179.68108326 32.48388672 180.89648438 C28.47908734 182.61843697 24.86036694 184.83464339 21.17138672 187.14648438 C19.61653564 188.09080322 19.61653564 188.09080322 18.03027344 189.05419922 C15.89336793 190.35278277 13.76087483 191.65865451 11.6328125 192.97167969 C8.62562657 194.80984482 5.59358518 196.59333418 2.54248047 198.35742188 C1.62442627 198.89206055 0.70637207 199.42669922 -0.23950195 199.97753906 C-1.97210392 200.98637571 -3.70782886 201.98987298 -5.44702148 202.98730469 C-6.22005615 203.44459961 -6.99309082 203.90189453 -7.78955078 204.37304688 C-8.46421387 204.76572754 -9.13887695 205.1584082 -9.83398438 205.56298828 C-11.8830866 207.18739995 -12.52075645 208.48452247 -13.51611328 210.89648438 C-13.81513839 213.13983017 -13.81513839 213.13983017 -13.7743988 215.55111694 C-13.78464081 216.94731514 -13.78464081 216.94731514 -13.79508972 218.37171936 C-13.79253677 219.38584396 -13.78998383 220.39996857 -13.78735352 221.44482422 C-13.79258026 222.5184169 -13.79780701 223.59200958 -13.80319214 224.69813538 C-13.81343451 227.02966219 -13.81921295 229.36121189 -13.82107353 231.69276047 C-13.82473237 235.38297991 -13.84144614 239.07292946 -13.86183167 242.76309204 C-13.91729038 253.25509628 -13.94793657 263.74714043 -13.97241211 274.23925781 C-13.98828524 280.6565261 -14.01850259 287.07360304 -14.05717659 293.49077225 C-14.06882938 295.93636672 -14.07475696 298.38199541 -14.07485771 300.82761765 C-14.07504972 304.24840015 -14.09331405 307.6686549 -14.11547852 311.08935547 C-14.11090134 312.09943161 -14.10632416 313.10950775 -14.10160828 314.15019226 C-14.16490909 320.29430242 -14.68107207 325.09255851 -19.2734375 329.63452148 C-23.91604419 332.89920439 -28.63349271 335.79026954 -33.64111328 338.45898438 C-40.51571793 342.20139395 -47.29051976 346.08007669 -54.01611328 350.08398438 C-63.14067362 355.50807324 -72.30800701 360.85252447 -81.51489258 366.13574219 C-86.67547246 369.09782051 -91.82775279 372.07112253 -96.94760132 375.10302734 C-99.33052325 376.51337939 -101.71801744 377.91588874 -104.10583496 379.31793213 C-105.79297024 380.31296299 -107.47347432 381.31921025 -109.15380859 382.32568359 C-110.17700195 382.92525879 -111.20019531 383.52483398 -112.25439453 384.14257812 C-113.60078003 384.94199829 -113.60078003 384.94199829 -114.97436523 385.75756836 C-117.80710483 387.02687296 -119.44907266 387.28949789 -122.51611328 386.89648438 C-124.64306641 385.97290039 -124.64306641 385.97290039 -126.79736328 384.65039062 C-128.03752197 383.90221069 -128.03752197 383.90221069 -129.30273438 383.13891602 C-130.19814941 382.58453857 -131.09356445 382.03016113 -132.01611328 381.45898438 C-133.99731112 380.26012028 -135.97911337 379.06225463 -137.96142578 377.86523438 C-139.02006836 377.22199219 -140.07871094 376.57875 -141.16943359 375.91601562 C-146.43153933 372.74063346 -151.7368779 369.64005613 -157.04312134 366.53918457 C-158.90289043 365.45210032 -160.76176004 364.36349358 -162.62036133 363.27441406 C-176.33765911 355.23716958 -190.07133733 347.22794863 -203.81298828 339.23242188 C-208.83581113 336.30957142 -213.85274861 333.37680152 -218.86767578 330.44042969 C-221.27542342 329.03679805 -223.69093415 327.64790836 -226.10986328 326.26367188 C-237.00795163 319.97621353 -244.43620599 314.13620624 -248.51611328 301.89648438 C-248.64839318 299.60131974 -248.72109272 297.30259714 -248.76422119 295.00402832 C-248.77848137 294.29868816 -248.79274154 293.593348 -248.80743384 292.86663389 C-248.85366214 290.49709136 -248.89258936 288.12749139 -248.93115234 285.7578125 C-248.96196855 284.06095088 -248.99294785 282.36409221 -249.02407837 280.66723633 C-249.29818514 265.16587619 -249.45632359 249.66286936 -249.58267593 234.1596756 C-249.66958631 223.73901169 -249.79229543 213.32127859 -250.00439453 202.90234375 C-250.1894892 193.80855686 -250.3073349 184.71682123 -250.34446502 175.62118101 C-250.36632191 170.80899746 -250.4208059 166.00236664 -250.55554962 161.19190979 C-251.34150089 131.95734353 -251.34150089 131.95734353 -246.67179871 125.24569702 C-242.28279026 121.25864206 -237.4907724 119.22470642 -231.83672333 117.62889099 C-229.50055992 116.89157559 -227.62497943 115.94360666 -225.52740479 114.6895752 C-222.51611328 112.89648438 -222.51611328 112.89648438 -220.51611328 112.89648438 C-220.5174121 113.81862543 -220.51871092 114.74076649 -220.5200491 115.69085121 C-220.5492461 138.12497067 -220.53991037 160.55878519 -220.48764706 182.99286842 C-220.46330279 193.84184995 -220.45201737 204.69055205 -220.47143555 215.53955078 C-220.48832671 224.99518847 -220.48075551 234.45043536 -220.4437657 243.90602148 C-220.42503338 248.91318152 -220.41858074 253.91968058 -220.4414196 258.92683792 C-220.46253191 263.64019052 -220.45092825 268.35233204 -220.41426849 273.06557846 C-220.40657715 274.79493365 -220.41082227 276.52438966 -220.42792702 278.25367737 C-220.83579437 287.12114946 -220.83579437 287.12114946 -218.00219154 295.21868801 C-216.22976225 296.77724051 -214.61905883 297.84391825 -212.51611328 298.89648438 C-211.54480469 299.52852783 -210.57349609 300.16057129 -209.57275391 300.81176758 C-208.615625 301.35148193 -207.65849609 301.89119629 -206.67236328 302.44726562 C-205.59921875 303.05828125 -204.52607422 303.66929687 -203.42041016 304.29882812 C-202.29699219 304.92917969 -201.17357422 305.55953125 -200.01611328 306.20898438 C-198.24414704 307.21467508 -196.47377715 308.22313611 -194.70349121 309.23178101 C-192.98692258 310.20954257 -191.26910789 311.18511549 -189.55126953 312.16064453 C-186.00589037 314.18828657 -182.50644405 316.27562366 -179.01611328 318.39648438 C-172.38942898 322.41889624 -165.67341072 326.28210292 -158.95361328 330.14648438 C-150.30192801 335.12272803 -141.67127202 340.13140625 -133.07861328 345.20898438 C-132.15556396 345.75393555 -131.23251465 346.29888672 -130.28149414 346.86035156 C-126.97876263 348.81636556 -123.71073393 350.76673727 -120.51611328 352.89648438 C-116.16898934 353.4704113 -113.78099254 352.20502254 -110.12158203 349.93164062 C-109.09218506 349.3012085 -108.06278809 348.67077637 -107.00219727 348.02124023 C-105.91366455 347.3406958 -104.82513184 346.66015137 -103.70361328 345.95898438 C-101.43028918 344.56128567 -99.15255554 343.17090137 -96.87548828 341.77929688 C-95.77527344 341.10415039 -94.67505859 340.42900391 -93.54150391 339.73339844 C-89.88951441 337.5160349 -86.193544 335.39843824 -82.45361328 333.33398438 C-75.60194826 329.52637535 -68.8002985 325.6355932 -62.01611328 321.70898438 C-61.00025146 321.12624756 -59.98438965 320.54351074 -58.93774414 319.94311523 C-47.93898563 314.22008697 -47.93898563 314.22008697 -40.51611328 304.89648438 C-40.20888073 302.436198 -40.20888073 302.436198 -40.24145508 299.76416016 C-40.23192307 298.74274933 -40.22239105 297.7213385 -40.21257019 296.66897583 C-40.2134816 295.57100677 -40.21439301 294.47303772 -40.21533203 293.34179688 C-40.20890434 291.64034012 -40.20890434 291.64034012 -40.2023468 289.9045105 C-40.19660493 287.5055203 -40.19610218 285.10651268 -40.20043945 282.70751953 C-40.20359532 279.04233979 -40.18015159 275.37797034 -40.15478516 271.71289062 C-40.15251171 269.38086039 -40.15180888 267.04882799 -40.15283203 264.71679688 C-40.13901741 263.07591599 -40.13901741 263.07591599 -40.12492371 261.40188599 C-40.1418176 253.69197464 -40.1418176 253.69197464 -43.51611328 246.89648438 C-46.25403225 244.71168349 -46.25403225 244.71168349 -49.55517578 242.94335938 C-50.14836105 242.60172256 -50.74154633 242.26008575 -51.35270691 241.90809631 C-53.27404313 240.80587344 -55.20713649 239.72634551 -57.14111328 238.64648438 C-58.4775631 237.88466697 -59.81309054 237.12122923 -61.14770508 236.35620117 C-63.76719747 234.85685368 -66.39073988 233.36508217 -69.01855469 231.88037109 C-73.15267982 229.54139749 -77.24499278 227.1348358 -81.32861328 224.70898438 C-88.04472737 220.74911584 -94.78042514 216.82293343 -101.51611328 212.89648438 C-104.56714027 211.11667865 -107.61806342 209.33669506 -110.66894531 207.55664062 C-112.47928933 206.50104644 -114.29010841 205.44626624 -116.1015625 204.39257812 C-129.9945305 196.31062469 -129.9945305 196.31062469 -135.89111328 192.58398438 C-136.86177734 191.97103516 -136.86177734 191.97103516 -137.85205078 191.34570312 C-140.74041234 188.83025209 -142.32299826 186.46672989 -142.8006134 182.58317375 C-142.92181411 179.60267835 -142.94420693 176.63509114 -142.93603516 173.65209961 C-142.9445047 172.51662689 -142.95297424 171.38115417 -142.96170044 170.21127319 C-142.98509468 166.45909419 -142.98609215 162.70732453 -142.98486328 158.95507812 C-142.99196212 156.34863622 -142.99966071 153.74219589 -143.00793457 151.13575745 C-143.02252922 145.67421131 -143.02312645 140.21277938 -143.01708984 134.7512207 C-143.01044211 128.43950038 -143.03334629 122.12836342 -143.07040358 115.81676143 C-143.10478609 109.73997765 -143.11143893 103.66346985 -143.10731506 97.58659554 C-143.10901149 95.00254641 -143.11870387 92.41848995 -143.13645935 89.83450127 C-143.15852796 86.2263506 -143.14900777 82.61961931 -143.13134766 79.01147461 C-143.1446109 77.93967453 -143.15787415 76.86787445 -143.17153931 75.76359558 C-143.08895284 68.52284782 -143.08895284 68.52284782 -140.147995 65.30709839 C-139.27947403 64.84159576 -138.41095306 64.37609314 -137.51611328 63.89648438 C-136.61675049 63.34049561 -135.7173877 62.78450684 -134.79077148 62.21166992 C-133.80939209 61.65777588 -132.8280127 61.10388184 -131.81689453 60.53320312 C-130.70258057 59.90091797 -129.5882666 59.26863281 -128.44018555 58.6171875 C-127.85181915 58.285979 -127.26345276 57.95477051 -126.65725708 57.61352539 C-124.79791568 56.56670138 -122.94165529 55.51460024 -121.08618164 54.4609375 C-118.51082594 52.99853624 -115.9346339 51.537626 -113.35791016 50.07763672 C-107.41742087 46.70835089 -101.49594305 43.30626556 -95.57861328 39.89648438 C-94.49290039 39.2709668 -93.4071875 38.64544922 -92.28857422 38.00097656 C-85.96099167 34.34342575 -79.68591932 30.6305441 -73.52001953 26.70507812 C-69.90340968 24.52758741 -66.20434039 22.52844858 -62.49291992 20.51782227 C-57.61737335 17.86232282 -52.78617428 15.12920188 -47.95361328 12.39648438 C-46.99003906 11.85378906 -46.02646484 11.31109375 -45.03369141 10.75195312 C-39.55575963 7.65653382 -34.13912946 4.48912051 -28.78979492 1.17578125 C-20.03626992 -3.74942771 -9.15804551 -4.22490513 0 0 Z " fill="#ffffff" transform="translate(790.51611328125,343.103515625)"/>
<path d="M0 0 C0.66 0.33 1.32 0.66 2 1 C1.01 1.33 0.02 1.66 -1 2 C-1 2.66 -1 3.32 -1 4 C-1.66 4 -2.32 4 -3 4 C-3 4.66 -3 5.32 -3 6 C-3.99 6.33 -4.98 6.66 -6 7 C-6.33 6.01 -6.66 5.02 -7 4 C-1.7265625 0.77734375 -1.7265625 0.77734375 0 0 Z " fill="#181818" transform="translate(705,741)"/>
</svg>
